<svg width="28" height="12" viewBox="0 0 28 12" fill="none" xmlns="http://www.w3.org/2000/svg">
<path d="M0.541016 5.03003L6.491 2.94006V4.38L2.01102 5.81995L6.491 7.26001V8.72998L0.541016 6.65002V5.03003Z" fill="#93D4F5"/>
<path d="M8.2106 4.35002H7.39062V3.11003H8.2106V2.63005C8.2106 1.45005 8.7706 0.91008 10.2106 0.91008C10.4852 0.905933 10.7596 0.925947 11.0306 0.970016V2.0601C10.8911 2.04334 10.7501 2.04334 10.6106 2.0601C10.0706 2.0601 9.83063 2.29002 9.83063 2.72002V3.14006H11.0206V4.38005H9.87061V9.16008H8.23062L8.2106 4.35002Z" fill="#F2777C"/>
<path d="M11.2211 6.12998C11.1749 5.72773 11.216 5.32027 11.3414 4.93528C11.4667 4.55029 11.6736 4.19683 11.9478 3.89891C12.222 3.60099 12.5571 3.36555 12.9304 3.20872C13.3037 3.05189 13.7064 2.97728 14.1111 2.98997C14.5042 2.97112 14.8968 3.03692 15.2623 3.18284C15.6279 3.32876 15.9578 3.5514 16.2299 3.83579C16.5019 4.12019 16.7098 4.45965 16.8394 4.83128C16.969 5.20291 17.0173 5.59806 16.9811 5.98997V6.49998H12.8411C12.8411 7.49998 13.3811 8.02 14.2211 8.02C14.4699 8.03989 14.7188 7.98231 14.9336 7.8552C15.1485 7.72809 15.3187 7.53771 15.4211 7.31004H16.9211V7.36997C16.7668 7.96256 16.406 8.48062 15.9037 8.83079C15.4013 9.18096 14.7904 9.34027 14.1811 9.28001C13.7697 9.30337 13.3582 9.23627 12.9755 9.08348C12.5928 8.93069 12.2483 8.69589 11.9661 8.39561C11.6839 8.09533 11.471 7.73687 11.3423 7.34544C11.2136 6.95401 11.1722 6.53913 11.2211 6.12998ZM12.8611 5.47996H15.4111C15.4124 5.31281 15.3805 5.1471 15.3171 4.99241C15.2538 4.83773 15.1603 4.69716 15.0421 4.57896C14.9239 4.46076 14.7834 4.36729 14.6287 4.30393C14.474 4.24058 14.3082 4.20861 14.1411 4.20994C13.8033 4.20993 13.4793 4.34351 13.2395 4.5814C12.9998 4.81929 12.8637 5.14222 12.8611 5.47996Z" fill="#F2777C"/>
<path d="M18.751 11.1H17.291L19.291 1.03003H20.741L18.751 11.1Z" fill="#93D4F5"/>
<path d="M27.4705 6.65002L21.5205 8.72998V7.30005L26.0005 5.84998L21.5205 4.41003V2.94006L27.4705 5.03003V6.65002Z" fill="#93D4F5"/>
</svg>
